<svg xmlns="http://www.w3.org/2000/svg" viewBox="0 0 746.96 341.01" xml:space="preserve"><g fill="#FFF"><path d="M180.45 113.45c-23.86-31.48-67.3-40.36-103.29-21.14 14.07 31.66 24.61 68.82 93.92 70.99 8.14.26 17.07.04 26.93-.74-1.42-19.85-7.88-36.34-17.56-49.11zM167.67 168.93c-41.71 2.06-61.3 17.27-73.53 36.03-7.2 11.04-11.85 23.3-16.98 34.83 50.6 27.02 115.94-1.47 120.85-70.26-11.26-.89-21.31-1.05-30.34-.6z"/><g><path d="M225.01 98.03h57.13v12.95h-42.28v18.88h28.15v12.95h-28.15v21.14h43.59v12.95h-58.43V98.03z"/><path d="M279.33 120.84h15.2l13.3 39.07 12.35-39.07h14.73l-20.43 56.06h-13.66l-21.49-56.06zM332.58 148.98c0-17.1 11.88-29.22 28.86-29.22 16.86 0 28.74 12.11 28.74 29.22 0 16.86-12.11 28.98-29.1 28.98-16.86 0-28.5-11.87-28.5-28.98zm42.64.36v-.47c0-10.69-5.23-17.1-13.78-17.1-8.67 0-13.9 6.41-13.9 17.1v.47c0 10.45 5.11 16.63 13.66 16.63 8.68 0 14.02-6.18 14.02-16.63zM396.88 96.97h14.85v79.93h-14.85V96.97zM420.2 154.45v-33.61h14.73v32.78c0 7.48 3.56 11.88 10.21 11.88 7.72 0 10.93-6.53 10.93-16.15v-28.5h14.73v56.06h-14.73v-7.96c-2.97 5.82-8.08 9.03-15.32 9.03-12.71-.02-20.55-9.04-20.55-23.53zM484.25 162.05v-29.34h-7.96v-11.88h7.96v-10.57l14.37-8.08v18.65h11.05v11.88h-11.16v27.91c0 2.73 1.31 3.92 4.04 4.04h6.53v12.23h-11.4c-10.81-.59-13.19-5.58-13.43-14.84zM516.36 98.27h15.32v14.37h-15.32V98.27zm.24 22.57h14.85v56.06H516.6v-56.06zM538.14 148.98c0-17.1 11.88-29.22 28.86-29.22 16.86 0 28.74 12.11 28.74 29.22 0 16.86-12.11 28.98-29.1 28.98-16.86 0-28.5-11.87-28.5-28.98zm42.64.36v-.47c0-10.69-5.23-17.1-13.78-17.1-8.67 0-13.9 6.41-13.9 17.1v.47c0 10.45 5.11 16.63 13.66 16.63 8.67 0 14.02-6.18 14.02-16.63zM602.32 120.84h14.73v9.14c2.97-6.53 8.43-10.33 16.39-10.33 12.23 0 19.48 8.19 19.48 23.63v33.61h-14.73v-32.78c0-7.84-2.97-11.88-9.86-11.88-7.01 0-11.28 5.7-11.28 16.15v28.5h-14.73v-56.04z"/><g><path d="M314.47 192.21h33.39v7.57h-24.71v11.04h16.45v7.57h-16.45v12.36h25.48v7.57h-34.15v-46.11zM353.83 205.54h8.61v5.35c1.74-3.82 4.93-6.04 9.58-6.04 7.15 0 11.39 4.79 11.39 13.81v19.65h-8.61v-19.16c0-4.58-1.74-6.94-5.76-6.94-4.1 0-6.6 3.33-6.6 9.44v16.66h-8.61v-32.77zM386.87 245.52c0-3.12 2.15-5.69 5.76-7.22-3.12-.76-5.21-2.92-5.21-5.48 0-2.85 2.15-4.93 5.83-5.97-2.92-2.22-4.72-5.55-4.72-9.3 0-7.22 6.11-12.63 14.37-12.63 5.14 0 9.37 2.15 11.8 5.55 1.25-3.05 3.47-4.93 6.87-4.93v8.4c-1.53-.62-3.54-.56-5.07.69.21.9.35 1.8.35 2.78 0 7.57-5.62 12.5-14.3 12.5-1.67 0-3.26-.21-4.72-.69h-.28c-1.67 0-2.98.76-2.98 1.8 0 1.25 1.74 2.08 4.03 2.08h7.64c10.27 0 15.83 3.75 15.83 10.62 0 7.08-6.73 11.39-18.12 11.39-11.04-.01-17.08-3.48-17.08-9.59zm27.77-1.04c0-2.85-2.78-4.1-8.82-4.1h-6.53c-2.98.42-5.21 1.87-5.21 4.37 0 2.64 3.61 4.23 10.14 4.23 6.32.01 10.42-1.72 10.42-4.5zm-5.35-26.86v-.42c0-3.47-2.78-6.04-6.53-6.04-3.68 0-6.39 2.64-6.39 6.11v.35c0 3.47 2.57 5.97 6.39 5.97 3.96 0 6.53-2.43 6.53-5.97zM425.33 192.35h8.96v8.4h-8.96v-8.4zm.14 13.19h8.68v32.77h-8.68v-32.77zM440.6 205.54h8.61v5.35c1.74-3.82 4.93-6.04 9.58-6.04 7.15 0 11.39 4.79 11.39 13.81v19.65h-8.61v-19.16c0-4.58-1.74-6.94-5.76-6.94-4.1 0-6.59 3.33-6.59 9.44v16.66h-8.61v-32.77zM474.4 222.13c0-10.14 6.8-17.22 16.38-17.22 9.93 0 15.83 6.6 15.83 16.94v2.92h-23.74c.56 4.72 3.61 7.36 8.26 7.36 4.86 0 6.94-2.29 7.98-5.07l7.5 2.64c-2.29 5.28-7.08 9.16-15.62 9.16-10.2 0-16.59-6.53-16.59-16.73zm23.54-3.33c-.35-4.79-2.92-7.22-7.36-7.22-4.16 0-7.22 2.64-7.84 7.22h15.2zM509.87 222.13c0-10.14 6.8-17.22 16.38-17.22 9.93 0 15.83 6.6 15.83 16.94v2.92h-23.74c.56 4.72 3.61 7.36 8.26 7.36 4.86 0 6.94-2.29 7.98-5.07l7.5 2.64c-2.29 5.28-7.08 9.16-15.62 9.16-10.2 0-16.59-6.53-16.59-16.73zm23.54-3.33c-.35-4.79-2.92-7.22-7.36-7.22-4.16 0-7.22 2.64-7.84 7.22h15.2zM546.8 205.54h8.61v6.04c.9-3.75 3.33-6.39 9.37-6.39h.69v8.26h-3.4c-5.21 0-6.66 2.36-6.66 8.05v16.8h-8.61v-32.76zM569.85 192.35h8.95v8.4h-8.95v-8.4zm.14 13.19h8.68v32.77h-8.68v-32.77zM585.12 205.54h8.61v5.35c1.74-3.82 4.93-6.04 9.58-6.04 7.15 0 11.39 4.79 11.39 13.81v19.65h-8.61v-19.16c0-4.58-1.74-6.94-5.76-6.94-4.1 0-6.59 3.33-6.59 9.44v16.66h-8.61v-32.77zM618.16 245.52c0-3.12 2.15-5.69 5.76-7.22-3.12-.76-5.21-2.92-5.21-5.48 0-2.85 2.15-4.93 5.83-5.97-2.92-2.22-4.72-5.55-4.72-9.3 0-7.22 6.11-12.63 14.37-12.63 5.14 0 9.37 2.15 11.8 5.55 1.25-3.05 3.47-4.93 6.87-4.93v8.4c-1.53-.62-3.54-.56-5.07.69.21.9.35 1.8.35 2.78 0 7.57-5.62 12.5-14.3 12.5-1.67 0-3.26-.21-4.72-.69h-.28c-1.67 0-2.99.76-2.99 1.8 0 1.25 1.74 2.08 4.03 2.08h7.64c10.27 0 15.83 3.75 15.83 10.62 0 7.08-6.73 11.39-18.12 11.39-11.03-.01-17.07-3.48-17.07-9.59zm27.77-1.04c0-2.85-2.78-4.1-8.82-4.1h-6.53c-2.98.42-5.21 1.87-5.21 4.37 0 2.64 3.61 4.23 10.14 4.23 6.32.01 10.42-1.72 10.42-4.5zm-5.35-26.86v-.42c0-3.47-2.78-6.04-6.53-6.04-3.68 0-6.39 2.64-6.39 6.11v.35c0 3.47 2.57 5.97 6.39 5.97 3.97 0 6.53-2.43 6.53-5.97z"/></g></g></g></svg>